<svg xmlns="http://www.w3.org/2000/svg" viewBox="0 0 512 512"><path d="M206 101h-32c-5 0-8 4-8 8v24c0 4 3 7 8 7h32c4 0 8-3 8-7v-24c0-4-4-8-8-8zm-7 24h-18v-9h18v9zM74 101H41c-4 0-7 4-7 8v24c0 4 3 7 7 7h33c4 0 7-3 7-7v-24c0-4-3-8-7-8zm-25 24v-9h17v9H49zM140 101h-33c-4 0-7 4-7 8v24c0 4 3 7 7 7h33c4 0 8-3 8-7v-24c0-4-4-8-8-8zm-8 24h-17v-9h17v9zM405 101h-33c-4 0-8 4-8 8v24c0 4 4 7 8 7h33c4 0 7-3 7-7v-24c0-4-3-8-7-8zm-8 24h-17v-9h17v9zM338 101h-32c-4 0-8 4-8 8v24c0 4 4 7 8 7h32c5 0 8-3 8-7v-24c0-4-3-8-8-8zm-7 24h-18v-9h18v9zM338 371h-32c-4 0-8 3-8 7v25c0 4 4 8 8 8h32c5 0 8-4 8-8v-25c0-4-3-7-8-7zm-25 25v-10h18v10h-18zM140 371h-33c-4 0-7 3-7 7v25c0 4 3 8 7 8h33c4 0 8-4 8-8v-25c0-4-4-7-8-7zm-8 25h-17v-10h17v10zM206 371h-32c-5 0-8 3-8 7v25c0 4 3 8 8 8h32c4 0 8-4 8-8v-25c0-4-4-7-8-7zm-7 25h-18v-10h18v10z"/><path d="M504 70H57a8 8 0 000 15h440v73h-11c-12 0-21 9-21 21v154c0 12 9 21 21 21h11v73H15v-73h11c12 0 21-9 21-21V179c0-12-9-21-21-21H15V77a8 8 0 00-15 0v358c0 4 3 7 8 7h496c5 0 8-3 8-7V77c0-4-3-7-8-7zM15 173h11c3 0 6 2 6 6v154c0 3-3 6-6 6H15V173zm482 166h-11c-3 0-6-3-6-6V179c0-4 3-6 6-6h11v166z"/><path d="M471 101h-33c-4 0-7 4-7 8v24c0 4 3 7 7 7h33c4 0 7-3 7-7v-24c0-4-3-8-7-8zm-8 24h-17v-9h17v9zM74 371H41c-4 0-7 3-7 7v25c0 4 3 8 7 8h33c4 0 7-4 7-8v-25c0-4-3-7-7-7zm-25 25v-10h17v10H49zM272 101h-32c-4 0-8 4-8 8v24c0 4 4 7 8 7h32c4 0 8-3 8-7v-24c0-4-4-8-8-8zm-7 24h-18v-9h18v9zM405 371h-33c-4 0-8 3-8 7v25c0 4 4 8 8 8h33c4 0 7-4 7-8v-25c0-4-3-7-7-7zm-8 25h-17v-10h17v10zM272 371h-32c-4 0-8 3-8 7v25c0 4 4 8 8 8h32c4 0 8-4 8-8v-25c0-4-4-7-8-7zm-7 25h-18v-10h18v10zM471 371h-33c-4 0-7 3-7 7v25c0 4 3 8 7 8h33c4 0 7-4 7-8v-25c0-4-3-7-7-7zm-8 25h-17v-10h17v10zM223 158h-93a8 8 0 000 15h93c8 0 14 7 14 15v136c0 8-6 15-14 15H86c-8 0-15-7-15-15V188c0-8 7-15 15-15a8 8 0 000-15c-17 0-30 13-30 30v136c0 17 13 30 30 30h137c16 0 29-13 29-30V188c0-17-13-30-29-30zM425 158h-91a8 8 0 100 15h91c8 0 15 7 15 15v136c0 8-7 15-15 15H289c-8 0-15-7-15-15V188c0-8 7-15 15-15a8 8 0 100-15c-17 0-30 13-30 30v136c0 17 13 30 30 30h136c17 0 30-13 30-30V188c0-17-13-30-30-30z"/></svg>