<svg xmlns="http://www.w3.org/2000/svg" viewBox="0 0 395 395"><path d="M291 117l-22 270h-45l3-89a54 54 0 003-89l3-92h58zM168 298l3 89h-45l-22-270h59l2 92a54 54 0 003 89z" fill="#f2f2f2"/><path d="M230 209a54 54 0 11-64 87 54 54 0 0164-87zM76 62a25 25 0 0141-27 33 33 0 0156-11 25 25 0 0148 2 33 33 0 0157 9 25 25 0 0143 18l-2 9a33 33 0 0121 55H55a33 33 0 0121-55z" fill="#f7b239"/><g fill="#e09b2d"><path d="M148 62a25 25 0 0141-27c4-11 13-19 24-21a25 25 0 00-40 10 33 33 0 00-56 11 25 25 0 00-41 27 33 33 0 00-21 55h72a33 33 0 0121-55zM245 24c2-4 4-8 8-11a33 33 0 00-20 3c5 1 9 4 12 8z"/></g><path fill="#e54728" d="M104 117l22 270H88L54 117h1z"/><path d="M227 298l-3 89h-53l-3-89a54 54 0 0059 0zM233 117l-3 92a54 54 0 00-65 0l-2-92h70zM341 117l-34 270h-38l22-270h49z" fill="#f95428"/><path d="M292 328h-1c-4-1-7-5-6-9l19-151a8 8 0 0115 2l-19 151c-1 4-4 7-8 7z" fill="#fff"/><circle cx="314.5" cy="140.3" r="7.5" fill="#fff"/><g fill="#333"><path d="M356 95c0-18-11-33-28-39a33 33 0 00-47-32 41 41 0 00-58-11 33 33 0 00-52-1 41 41 0 00-57 12c-4-3-9-4-15-4a33 33 0 00-32 36 40 40 0 00-20 64l33 268c1 4 4 7 8 7h219c4 0 7-3 8-7l33-268c5-7 8-16 8-25zM72 71a26 26 0 0025 11c4 0 7-4 7-8s-4-8-8-7c-9 1-12-6-13-7v-1l-1-4c-1-10 6-19 16-20 5 0 10 2 14 5 1 2 3 3 5 3 3 0 6-2 7-5a26 26 0 0143-9l6 2c3 1 6-1 7-5 3-6 9-11 17-11 7 0 14 5 16 12 1 3 2 4 4 5 4 2 7 1 9-2a25 25 0 0143 4l-4 9c-2 10 1 20 9 29a7 7 0 0011 0c3-3 2-8 0-11-5-5-6-9-5-14v-1c2-4 5-8 9-9a18 18 0 0124 16l-1 6v6c1 2 3 4 6 5 13 1 23 12 23 25 0 6-1 11-4 15H58a25 25 0 0114-39zm125 228a47 47 0 111-93 47 47 0 01-1 93zm0-108c-8 0-17 2-25 5l-2-71h55l-2 71c-8-3-17-5-26-5zm-42-66l3 81a61 61 0 003 96l2 78h-30l-21-255h43zm21 185a61 61 0 0043 0l-2 70h-39l-2-70zm58-8a61 61 0 003-96l3-81h43l-21 255h-30l2-78zM63 125h34l21 255H94L63 125zm238 255h-24l21-255h34l-31 255z"/><path d="M167 101a8 8 0 000-15 13 13 0 1111-19 8 8 0 0012 1c3-3 7-5 12-5 9 0 16 7 16 17a7 7 0 1015 0 31 31 0 00-48-27c-5-5-11-7-18-7a28 28 0 000 55z"/></g></svg>